<svg width="500" height="382" id="Calque_1" data-name="Calque 1" xmlns="http://www.w3.org/2000/svg" viewBox="0 0 319 282.1363"><defs><style>.cls-1{fill:#0e535c;}.cls-2{fill:#21c6db;}</style></defs><polygon class="cls-1" points="136.141 73.908 136.141 88.357 118.134 88.357 118.134 205.543 110.453 205.543 110.453 88.357 92.535 88.357 92.535 88.169 81.206 88.169 81.206 131.914 103.486 131.914 103.486 145.976 81.206 145.976 81.206 205.543 73.604 205.543 73.604 73.908 136.141 73.908"/><path class="cls-1" d="M256.9143,250.3941v56.444h-7.6017v-56.444Z" transform="translate(-155.0262 -101.2918)"/><path class="cls-2" d="M280.6008,237.8944c0-9.7659-.0874-17.7734-.3494-25.5857h6.8157l.4367,15.6247h.1747c2.0972-8.9837,6.9894-17.7733,13.98-17.7733,5.8539,0,14.94,7.8123,14.94,40.234v56.444H308.91V252.3467c0-15.2336-2.5339-27.9293-9.7853-27.9293-5.0678,0-8.9993,8.0083-10.31,17.5782a53.5354,53.5354,0,0,0-.524,8.0074v56.8351h-7.6891Z" transform="translate(-155.0262 -101.2918)"/><path class="cls-2" d="M328.39,262.6988c.1747,23.241,6.8147,32.8119,14.5038,32.8119a15.7539,15.7539,0,0,0,11.7078-4.8835l1.3111,12.3047a19.4857,19.4857,0,0,1-14.067,5.8588c-13.019,0-20.7954-19.14-20.7954-47.6543s7.5144-50.9763,19.8336-50.9763c13.8051,0,17.4754,27.1481,17.4754,44.53,0,3.5161-.1756,6.25-.263,8.0084Zm24.5422-12.3047c.0874-10.9373-2.01-27.9294-10.66-27.9294-7.7764,0-11.1838,16.0149-11.7952,27.9294Z" transform="translate(-155.0262 -101.2918)"/><path class="cls-2" d="M395.2141,251.9585c-5.5056-4.69-8.03-8.2084-8.03-16.0195,0-7.026,2.5241-12.8892,7.0756-12.8892,3.9254,0,6.9863,3.13,8.6458,5.4658l1.9279-12.4917c-2.3651-3.13-6.1216-5.8633-10.4047-5.8633-3.3192,0-6.1614,1.6695-8.4172,4.5316a13.001,13.001,0,0,0-9.2819-4.5316c-9.083,0-14.5885,12.5016-14.5885,27.7361,0,11.329,3.5776,20.7,11.18,26.7523,5.6844,4.6906,7.8607,9.1824,7.8607,17.381,0,7.811-2.6136,14.0619-8.2085,14.0619-3.8459,0-7.8607-3.5081-10.1365-6.8272l-1.9179,13.078c2.9614,3.9055,7.2445,6.45,11.8755,6.45a11.7442,11.7442,0,0,0,8.5067-3.6074,14.1706,14.1706,0,0,0,9.2023,3.6074c10.047,0,15.8109-11.7165,15.8109-28.3224C406.3145,266.408,402.558,258.2094,395.2141,251.9585Zm-4.5416,44.1334a8.4055,8.4055,0,0,1-3.8856-1.0634,53.0806,53.0806,0,0,0,1.8285-14.5587c0-14.0618-3.7565-22.26-11.1-28.5113-5.5055-4.69-8.04-8.2084-8.04-16.0195,0-7.026,2.5341-12.8892,7.0756-12.8892a8.5788,8.5788,0,0,1,4.85,1.63,53.0532,53.0532,0,0,0-1.56,13.2171c0,11.329,3.5776,20.7,11.18,26.7523,5.6844,4.6906,7.8707,9.1824,7.8707,17.381C398.891,289.841,396.2675,296.0919,390.6725,296.0919Z" transform="translate(-155.0262 -101.2918)"/><path class="cls-1" d="M272.293,105.5035c-22.0318,6.3681-51.7429,23.88-66.4079,39.719-51.705,55.3123-41.8473,144.6337,21.0557,187.9068,25.0083,17.0529,64.2363,24.4536,92.5361,17.26l13.7722-3.7225-36.2162.0434c-21.3172-2.8318-34.1132-6.0911-50.824-21.6676-50.3811-46.47-44.883-151.8,20.0685-186.096,25.4795-13.6112,81.392-16.2685,110.8616-5.4365,46.0951,17.1338,87.292,65.1979,94.5995,122.85l1.9156,17.2464.3718-14.1738c.05-21.9-6.4668-48.1261-18.4843-71.9866-19.9454-39.7684-59.6493-71.6417-102.1736-82.6219C333.9932,99.8335,290.82,100.1952,272.293,105.5035Z" transform="translate(-155.0262 -101.2918)"/><path class="cls-1" d="M371.0192,374.4581c21.2308-8.2514,48.9961-28.2,62.0026-45.16,45.91-59.2683,27.4693-146.6886-39.1082-183.8793-26.4544-14.6365-66.0741-18.469-93.4407-8.8451l-13.2965,4.9027,35.9107-3.2587c21.4146.9064,34.42,2.9921,52.5032,16.9059,54.47,41.4626,59.2348,146.0711-1.85,185.7408-23.9473,15.7174-79.137,23.3089-109.4122,15.218-47.3738-12.844-92.8905-56.6981-105.73-113.0392l-3.5727-16.8782,1.0062,14.044c2.0751,21.6535,11.0815,46.9992,25.3135,69.5187,23.6373,37.5406,66.1028,65.5224,109.3385,72.6006C310.3822,385.5416,353.1611,381.35,371.0192,374.4581Z" transform="translate(-155.0262 -101.2918)"/></svg>